<svg width="232" height="29" viewBox="0 0 232 29" fill="none" xmlns="http://www.w3.org/2000/svg">
<path d="M0.902344 0.525391H10.9746C13.916 0.525391 16.4707 0.841797 18.6387 1.47461C20.8066 2.10742 22.5996 3.01563 24.0176 4.19922C25.4473 5.37109 26.5078 6.80078 27.1992 8.48828C27.9023 10.1641 28.2539 12.0508 28.2539 14.1484C28.2539 16.1406 27.9082 17.9863 27.2168 19.6855C26.5254 21.373 25.4707 22.8379 24.0527 24.0801C22.6348 25.3105 20.8418 26.2773 18.6738 26.9805C16.5059 27.6719 13.9512 28.0176 11.0098 28.0176L0.902344 28V0.525391ZM12.3457 23.1836C14.0098 23.1836 15.4688 22.9727 16.7227 22.5508C17.9766 22.1172 19.0195 21.5078 19.8516 20.7227C20.6953 19.9375 21.3281 18.9883 21.75 17.875C22.1719 16.7617 22.3828 15.5195 22.3828 14.1484C22.3828 12.8008 22.1719 11.5879 21.75 10.5098C21.3281 9.41992 20.6953 8.5 19.8516 7.75C19.0195 6.98828 17.9766 6.40234 16.7227 5.99219C15.4688 5.58203 14.0098 5.37695 12.3457 5.37695H6.47461V23.1836H12.3457ZM33.8613 0.525391H39.4336L49.418 10.5449L59.4023 0.525391H64.9746V28H59.4023V8.24219L49.418 17.8574L39.4336 8.24219V28H33.8613V0.525391ZM72.7969 0.525391H96.1934V5.41211H78.3691V10.8965H94.1543V15.4844H78.3691V23.1309H96.5625V28H72.7969V0.525391ZM111.029 5.41211H100.887V0.525391H126.744V5.41211H116.602V28H111.029V5.41211ZM133.986 19.8262C134.982 20.3887 135.99 20.8984 137.01 21.3555C138.041 21.8008 139.107 22.1816 140.209 22.498C141.311 22.8027 142.465 23.0371 143.672 23.2012C144.891 23.3652 146.186 23.4473 147.557 23.4473C149.209 23.4473 150.615 23.3418 151.775 23.1309C152.936 22.9082 153.879 22.6094 154.605 22.2344C155.344 21.8477 155.877 21.3906 156.205 20.8633C156.545 20.3359 156.715 19.7617 156.715 19.1406C156.715 18.1445 156.299 17.3594 155.467 16.7852C154.635 16.1992 153.352 15.9062 151.617 15.9062C150.855 15.9062 150.053 15.959 149.209 16.0645C148.365 16.1582 147.51 16.2637 146.643 16.3809C145.787 16.498 144.938 16.6094 144.094 16.7148C143.262 16.8086 142.477 16.8555 141.738 16.8555C140.508 16.8555 139.324 16.6973 138.188 16.3809C137.062 16.0645 136.061 15.5898 135.182 14.957C134.314 14.3242 133.623 13.5332 133.107 12.584C132.592 11.6348 132.334 10.5273 132.334 9.26172C132.334 8.51172 132.434 7.76758 132.633 7.0293C132.844 6.29102 133.172 5.58789 133.617 4.91992C134.074 4.24023 134.66 3.61328 135.375 3.03906C136.09 2.45313 136.951 1.94922 137.959 1.52734C138.979 1.10547 140.15 0.777344 141.475 0.542969C142.811 0.296875 144.328 0.173828 146.027 0.173828C147.258 0.173828 148.494 0.244141 149.736 0.384766C150.979 0.513672 152.186 0.701172 153.357 0.947266C154.541 1.19336 155.678 1.49219 156.768 1.84375C157.857 2.18359 158.871 2.56445 159.809 2.98633L157.365 7.48633C156.592 7.14648 155.76 6.83594 154.869 6.55469C153.979 6.26172 153.047 6.00977 152.074 5.79883C151.102 5.58789 150.094 5.42383 149.051 5.30664C148.02 5.17773 146.965 5.11328 145.887 5.11328C144.352 5.11328 143.086 5.22461 142.09 5.44727C141.105 5.66992 140.32 5.95703 139.734 6.30859C139.148 6.64844 138.738 7.03516 138.504 7.46875C138.281 7.89062 138.17 8.3125 138.17 8.73438C138.17 9.55469 138.539 10.2285 139.277 10.7559C140.016 11.2715 141.141 11.5293 142.652 11.5293C143.262 11.5293 143.959 11.4883 144.744 11.4062C145.541 11.3125 146.373 11.2129 147.24 11.1074C148.119 11.002 149.01 10.9082 149.912 10.8262C150.826 10.7324 151.711 10.6855 152.566 10.6855C154.184 10.6855 155.613 10.8672 156.855 11.2305C158.109 11.5938 159.158 12.1152 160.002 12.7949C160.846 13.4629 161.484 14.2773 161.918 15.2383C162.352 16.1875 162.568 17.2539 162.568 18.4375C162.568 20.0195 162.199 21.4316 161.461 22.6738C160.734 23.9043 159.691 24.9473 158.332 25.8027C156.984 26.6465 155.355 27.291 153.445 27.7363C151.535 28.1699 149.408 28.3867 147.064 28.3867C145.518 28.3867 144.006 28.2871 142.529 28.0879C141.053 27.9004 139.635 27.6309 138.275 27.2793C136.928 26.916 135.639 26.4883 134.408 25.9961C133.189 25.4922 132.059 24.9414 131.016 24.3438L133.986 19.8262ZM178.072 0.525391H183.979L197.268 28H191.414L189.217 23.377H173.168L171.041 28H165.17L178.072 0.525391ZM187.02 18.7891L181.078 6.30859L175.295 18.7891H187.02ZM202.822 19.8262C203.818 20.3887 204.826 20.8984 205.846 21.3555C206.877 21.8008 207.943 22.1816 209.045 22.498C210.146 22.8027 211.301 23.0371 212.508 23.2012C213.727 23.3652 215.021 23.4473 216.393 23.4473C218.045 23.4473 219.451 23.3418 220.611 23.1309C221.771 22.9082 222.715 22.6094 223.441 22.2344C224.18 21.8477 224.713 21.3906 225.041 20.8633C225.381 20.3359 225.551 19.7617 225.551 19.1406C225.551 18.1445 225.135 17.3594 224.303 16.7852C223.471 16.1992 222.188 15.9062 220.453 15.9062C219.691 15.9062 218.889 15.959 218.045 16.0645C217.201 16.1582 216.346 16.2637 215.479 16.3809C214.623 16.498 213.773 16.6094 212.93 16.7148C212.098 16.8086 211.312 16.8555 210.574 16.8555C209.344 16.8555 208.16 16.6973 207.023 16.3809C205.898 16.0645 204.896 15.5898 204.018 14.957C203.15 14.3242 202.459 13.5332 201.943 12.584C201.428 11.6348 201.17 10.5273 201.17 9.26172C201.17 8.51172 201.27 7.76758 201.469 7.0293C201.68 6.29102 202.008 5.58789 202.453 4.91992C202.91 4.24023 203.496 3.61328 204.211 3.03906C204.926 2.45313 205.787 1.94922 206.795 1.52734C207.814 1.10547 208.986 0.777344 210.311 0.542969C211.646 0.296875 213.164 0.173828 214.863 0.173828C216.094 0.173828 217.33 0.244141 218.572 0.384766C219.814 0.513672 221.021 0.701172 222.193 0.947266C223.377 1.19336 224.514 1.49219 225.604 1.84375C226.693 2.18359 227.707 2.56445 228.645 2.98633L226.201 7.48633C225.428 7.14648 224.596 6.83594 223.705 6.55469C222.814 6.26172 221.883 6.00977 220.91 5.79883C219.938 5.58789 218.93 5.42383 217.887 5.30664C216.855 5.17773 215.801 5.11328 214.723 5.11328C213.188 5.11328 211.922 5.22461 210.926 5.44727C209.941 5.66992 209.156 5.95703 208.57 6.30859C207.984 6.64844 207.574 7.03516 207.34 7.46875C207.117 7.89062 207.006 8.3125 207.006 8.73438C207.006 9.55469 207.375 10.2285 208.113 10.7559C208.852 11.2715 209.977 11.5293 211.488 11.5293C212.098 11.5293 212.795 11.4883 213.58 11.4062C214.377 11.3125 215.209 11.2129 216.076 11.1074C216.955 11.002 217.846 10.9082 218.748 10.8262C219.662 10.7324 220.547 10.6855 221.402 10.6855C223.02 10.6855 224.449 10.8672 225.691 11.2305C226.945 11.5938 227.994 12.1152 228.838 12.7949C229.682 13.4629 230.32 14.2773 230.754 15.2383C231.188 16.1875 231.404 17.2539 231.404 18.4375C231.404 20.0195 231.035 21.4316 230.297 22.6738C229.57 23.9043 228.527 24.9473 227.168 25.8027C225.82 26.6465 224.191 27.291 222.281 27.7363C220.371 28.1699 218.244 28.3867 215.9 28.3867C214.354 28.3867 212.842 28.2871 211.365 28.0879C209.889 27.9004 208.471 27.6309 207.111 27.2793C205.764 26.916 204.475 26.4883 203.244 25.9961C202.025 25.4922 200.895 24.9414 199.852 24.3438L202.822 19.8262Z" fill="white"/>
</svg>
