<svg width="16" height="16" viewBox="0 0 16 16" fill="none" xmlns="http://www.w3.org/2000/svg">
<path d="M15.9924 12.624C16.0263 12.8837 15.9471 13.1096 15.7552 13.3015L13.5025 15.5373C13.4008 15.6502 13.2682 15.7462 13.1044 15.8252C12.9407 15.9043 12.7798 15.9551 12.6218 15.9776C12.6105 15.9776 12.5765 15.9805 12.5201 15.9862C12.4637 15.9918 12.3903 15.9947 12.2999 15.9947C12.0853 15.9947 11.7381 15.958 11.2582 15.8846C10.7783 15.8111 10.1911 15.6304 9.49669 15.3425C8.80212 15.0546 8.01453 14.6226 7.13378 14.0468C6.25303 13.471 5.31576 12.6805 4.32206 11.6755C3.53162 10.8963 2.87668 10.151 2.35724 9.43966C1.83781 8.72823 1.42 8.07047 1.10383 7.46635C0.78762 6.86222 0.550487 6.31456 0.392399 5.82335C0.23431 5.33215 0.127036 4.9087 0.0705753 4.553C0.0141151 4.1973 -0.00846903 3.91782 0.00282301 3.71456C0.0141151 3.51131 0.0197611 3.39839 0.0197611 3.3758C0.0423452 3.21771 0.0931594 3.0568 0.172204 2.89307C0.251248 2.72933 0.34723 2.59665 0.460151 2.49502L2.71291 0.24226C2.871 0.0841713 3.05168 0.00512695 3.25493 0.00512695C3.40173 0.00512695 3.53159 0.0474721 3.64451 0.132162C3.75743 0.216853 3.85341 0.321304 3.93246 0.445517L5.74483 3.88394C5.84646 4.06462 5.87469 4.26223 5.82952 4.47678C5.78435 4.69133 5.68837 4.872 5.54157 5.0188L4.71161 5.84876C4.68902 5.87135 4.66926 5.90804 4.65232 5.95886C4.63539 6.00967 4.62692 6.05202 4.62692 6.08589C4.67208 6.32303 4.77371 6.59404 4.9318 6.89892C5.06731 7.16993 5.27621 7.50022 5.55851 7.8898C5.84081 8.27937 6.24168 8.7282 6.76111 9.23635C7.26925 9.75584 7.72094 10.1595 8.11616 10.4475C8.5113 10.7353 8.8417 10.9471 9.10706 11.0826C9.37243 11.2181 9.57568 11.3 9.71681 11.3281L9.92848 11.3705C9.95106 11.3705 9.98784 11.362 10.0386 11.3451C10.0894 11.3281 10.1261 11.3084 10.1487 11.2858L11.1142 10.3034C11.3175 10.1227 11.5546 10.0324 11.8256 10.0324C12.0176 10.0324 12.17 10.0663 12.2829 10.134H12.2998L15.5688 12.065C15.806 12.2119 15.9472 12.3981 15.9924 12.624Z" fill="white"/>
</svg>
