<svg width="136" height="136" viewBox="0 0 136 136" fill="none" xmlns="http://www.w3.org/2000/svg">
<g clip-path="url(#clip0_6853_750)">
<path d="M133.31 37.7236C127.372 22.6127 109.078 13.5509 93.5843 19.5476C75.8985 26.3928 81.7624 54.5233 65.6982 60.2116C57.0205 63.2844 44.1927 51.8062 35.4252 50.0462C19.2696 46.8029 4.64429 58.2022 1.04295 73.988C-2.63118 90.0929 3.26171 111.603 20.9561 115.974C42.0334 121.181 53.0125 102.234 70.6941 96.7933C88.8389 91.2101 109.014 104.396 124.035 88.3528C135.133 76.5003 139.191 52.6868 133.31 37.7236Z" fill="#F5F4F2"/>
<path opacity="0.1" d="M121.016 60.0053C118.68 60.0053 116.532 60.8067 114.827 62.1465C114.671 61.16 113.82 60.4048 112.789 60.4048C110.217 60.4048 107.871 61.3746 106.096 62.9673V24.5332C106.096 23.0662 104.907 21.877 103.44 21.877H32.5638C31.0967 21.877 29.9075 23.0662 29.9075 24.5332V62.9673C28.1324 61.3746 25.7869 60.4048 23.2143 60.4048C22.184 60.4048 21.3324 61.16 21.1767 62.1465C19.4719 60.8067 17.3238 60.0053 14.9874 60.0053C13.8468 60.0053 12.9219 60.9299 12.9219 62.0708V70.8404C12.9219 71.9922 13.1562 73.1317 13.6101 74.1902L21.9135 93.5405C22.8892 95.8142 24.5743 97.7113 26.7171 98.9486L39.3763 106.257C41.7932 107.653 43.2823 110.232 43.2823 113.022V119.436C43.2823 120.903 44.4715 122.092 45.9385 122.092H61.3655C62.8326 122.092 64.0218 120.903 64.0218 119.436V97.3809C64.0218 95.7698 63.6626 94.1915 62.9871 92.7531H73.0161C72.3403 94.1915 71.9812 95.7698 71.9812 97.3809V119.436C71.9812 120.903 73.1704 122.092 74.6375 122.092H90.0644C91.5315 122.092 92.7207 120.903 92.7207 119.436V113.022C92.7207 110.232 94.2095 107.653 96.6267 106.257L109.286 98.9486C111.429 97.7116 113.114 95.8142 114.089 93.5405L122.393 74.1902C122.847 73.132 123.081 71.9922 123.081 70.8404V62.0708C123.082 60.9302 122.157 60.0053 121.016 60.0053Z" fill="#D8443C"/>
<path d="M104.25 87.9103L114.164 67.9488C114.618 66.8906 114.852 65.7508 114.852 64.599V55.8297C114.852 54.6888 113.928 53.7642 112.787 53.7642C107.249 53.7642 102.759 58.2535 102.759 63.7915C102.759 65.9335 102.207 68.0391 101.155 69.9051L90.8438 87.9103H104.25Z" fill="#ECC2C0"/>
<path d="M31.7509 87.9103L21.8367 67.9488C21.3825 66.8906 21.1484 65.7508 21.1484 64.599V55.8297C21.1484 54.6888 22.0731 53.7642 23.2139 53.7642C28.752 53.7642 33.2413 58.2535 33.2413 63.7915C33.2413 65.9335 33.7938 68.0391 34.8454 69.9051L45.1572 87.9103H31.7509Z" fill="#ECC2C0"/>
<path d="M103.439 86.1125H32.5625C31.0955 86.1125 29.9062 84.9233 29.9062 83.4563V17.8926C29.9062 16.4255 31.0955 15.2363 32.5625 15.2363H103.439C104.906 15.2363 106.095 16.4255 106.095 17.8926V83.4563C106.095 84.9233 104.906 86.1125 103.439 86.1125Z" fill="white"/>
<path d="M38.904 55.3598V61.0187C38.904 61.7521 39.4988 62.3468 40.2322 62.3468C40.9656 62.3468 41.5603 61.7521 41.5603 61.0187V55.3601C41.7013 55.4089 41.848 55.4381 41.9956 55.4381C42.3356 55.4381 42.6754 55.3085 42.9349 55.0493C43.4537 54.5305 43.4537 53.6895 42.9349 53.171L41.1714 51.4076C40.6726 50.897 39.792 50.897 39.2932 51.4076L37.5297 53.171C37.0109 53.6898 37.0109 54.5308 37.5297 55.0493C37.9016 55.4209 38.4381 55.5216 38.904 55.3598Z" fill="#D8443C"/>
<path d="M46.9353 55.3598V61.0187C46.9353 61.7521 47.53 62.3468 48.2634 62.3468C48.9968 62.3468 49.5915 61.7521 49.5915 61.0187V55.3601C49.7326 55.4089 49.8792 55.4381 50.0269 55.4381C50.3669 55.4381 50.7066 55.3085 50.9662 55.0493C51.4849 54.5305 51.4849 53.6895 50.9662 53.171L49.2027 51.4076C48.7038 50.897 47.8233 50.897 47.3244 51.4076L45.5609 53.171C45.0422 53.6898 45.0422 54.5308 45.5609 55.0493C45.9331 55.4209 46.4697 55.5216 46.9353 55.3598Z" fill="#D8443C"/>
<path d="M50.0268 63.5806H38.7266C37.9932 63.5806 37.3984 64.1753 37.3984 64.9087C37.3984 65.6421 37.9932 66.2368 38.7266 66.2368H50.0268C50.7602 66.2368 51.3549 65.6421 51.3549 64.9087C51.3549 64.1753 50.7602 63.5806 50.0268 63.5806Z" fill="#D8443C"/>
<path d="M71.9155 34.9882H64.0859C63.3525 34.9882 62.7578 34.3935 62.7578 33.6601V15.2363H73.2436V33.6601C73.2436 34.3935 72.6492 34.9882 71.9155 34.9882Z" fill="#ECC2C0"/>
<path d="M60.2188 42.3477H75.7799C76.5132 42.3477 77.108 41.7529 77.108 41.0195C77.108 40.2861 76.5132 39.6914 75.7799 39.6914H60.2188C59.4854 39.6914 58.8906 40.2861 58.8906 41.0195C58.8906 41.7529 59.4854 42.3477 60.2188 42.3477Z" fill="#D8443C"/>
<path d="M64.2031 47.7454H71.7955C72.5289 47.7454 73.1236 47.1506 73.1236 46.4172C73.1236 45.6838 72.5289 45.0891 71.7955 45.0891H64.2031C63.4697 45.0891 62.875 45.6838 62.875 46.4172C62.875 47.1509 63.4697 47.7454 64.2031 47.7454Z" fill="#D8443C"/>
<path d="M64.2031 52.3467H71.7955C72.5289 52.3467 73.1236 51.7519 73.1236 51.0186C73.1236 50.2852 72.5289 49.6904 71.7955 49.6904H64.2031C63.4697 49.6904 62.875 50.2852 62.875 51.0186C62.875 51.7519 63.4697 52.3467 64.2031 52.3467Z" fill="#D8443C"/>
<path d="M58.2075 81.4064H37.7188C36.9851 81.4064 36.3906 80.8117 36.3906 80.0783V71.5374C36.3906 70.804 36.9851 70.2092 37.7188 70.2092H58.2075C58.9409 70.2092 59.5356 70.804 59.5356 71.5374V80.0783C59.5356 80.8119 58.9411 81.4064 58.2075 81.4064Z" fill="#ECC2C0"/>
<path d="M74.4486 83.8428L85.9879 69.7549C86.9978 68.5221 87.7877 67.1247 88.3238 65.6239C89.5988 62.0541 93.3332 59.9932 97.0331 60.8177C99.4086 61.347 100.803 63.8163 100.031 66.124L98.1816 71.6464C97.8565 72.6175 97.3399 73.5137 96.6625 74.2822L86.8897 85.3675L99.3974 83.4388C100.894 83.1828 102.195 82.2661 102.941 80.9433L109.387 69.5057C110.439 67.6397 110.991 65.5341 110.991 63.3921C110.991 57.8541 115.481 53.3647 121.019 53.3647C122.159 53.3647 123.084 54.2894 123.084 55.4302V64.1996C123.084 65.3513 122.85 66.4909 122.396 67.5494L114.093 86.8996C113.117 89.1734 111.432 91.0705 109.289 92.3078L96.6299 99.6164C94.2129 101.012 92.7238 103.591 92.7238 106.382V115.451H71.9844V90.74C71.9844 88.2256 72.8551 85.7883 74.4486 83.8428Z" fill="white"/>
<path d="M61.5575 83.8428L50.0183 69.7549C49.0084 68.5221 48.2184 67.1247 47.6824 65.6239C46.4074 62.0541 42.6729 59.9932 38.973 60.8177C36.5976 61.347 35.2028 63.8163 35.9755 66.124L37.8245 71.6464C38.1496 72.6175 38.6662 73.5137 39.3436 74.2822L49.1165 85.3675L36.6087 83.4388C35.1122 83.1828 33.8104 82.2661 33.065 80.9433L26.6188 69.5057C25.5672 67.6397 25.0147 65.5341 25.0147 63.3921C25.0147 57.8541 20.5254 53.3647 14.9874 53.3647C13.8468 53.3647 12.9219 54.2894 12.9219 55.4302V64.1996C12.9219 65.3513 13.1562 66.4909 13.6101 67.5494L21.9135 86.8996C22.8892 89.1734 24.5743 91.0705 26.7171 92.3078L39.3763 99.6164C41.7932 101.012 43.2823 103.591 43.2823 106.382V115.451H64.0218V90.74C64.0218 88.2256 63.151 85.7883 61.5575 83.8428Z" fill="white"/>
<path d="M121.016 52.0368C118.94 52.0368 116.994 52.5994 115.318 53.5761C114.686 52.8717 113.771 52.436 112.789 52.436C110.909 52.436 109.064 52.9083 107.424 53.7865V17.8926C107.424 15.6956 105.636 13.9082 103.439 13.9082H93.9686C93.2352 13.9082 92.6405 14.5029 92.6405 15.2363C92.6405 15.9697 93.2352 16.5645 93.9686 16.5645H103.439C104.172 16.5645 104.768 17.1602 104.768 17.8926V74.8415C104.768 74.8853 104.776 74.9268 104.781 74.9695L101.781 80.2913C101.23 81.2702 100.278 81.9403 99.1921 82.1266L90.3069 83.4966L97.656 75.1605C98.4547 74.2542 99.0545 73.2138 99.4378 72.0681L101.287 66.5458C101.774 65.0896 101.621 63.4874 100.866 62.1505C100.11 60.8136 98.8176 59.8552 97.3186 59.5213C92.9738 58.5531 88.5671 60.9844 87.07 65.1773C86.5837 66.5383 85.8729 67.7953 84.9573 68.9133L73.418 83.0015C72.9598 83.5609 72.5555 84.1586 72.2062 84.7847H63.7968C63.4475 84.1583 63.0432 83.5609 62.585 83.0015L51.0457 68.9133C50.1301 67.7955 49.4193 66.5386 48.9329 65.1773C47.4356 60.9847 43.0297 58.5534 38.6838 59.5213C37.1851 59.8552 35.8923 60.8136 35.1372 62.1505C34.3817 63.4874 34.2282 65.0894 34.7159 66.5458L36.5649 72.0681C36.9485 73.2138 37.548 74.2542 38.347 75.1605L45.696 83.4964L36.8326 82.1297C35.725 81.9401 34.7735 81.2699 34.2218 80.2911L31.2354 74.9924V67.0871C31.2354 66.3537 30.6407 65.759 29.9073 65.759C29.1739 65.759 28.5791 66.3537 28.5791 67.0871V70.2794L27.7756 68.8538C26.8382 67.1904 26.3426 65.3016 26.3426 63.392C26.3426 60.174 24.9948 57.2667 22.8371 55.1985C22.949 55.1316 23.0778 55.0923 23.2143 55.0923C25.159 55.0923 27.0547 55.75 28.5794 56.9458V59.3171C28.5794 60.0505 29.1741 60.6452 29.9075 60.6452C30.6409 60.6452 31.2357 60.0505 31.2357 59.3171V17.8926C31.2357 17.1602 31.8315 16.5645 32.5638 16.5645H86.1991C86.9324 16.5645 87.5272 15.9697 87.5272 15.2363C87.5272 14.5029 86.9324 13.9082 86.1991 13.9082H32.5635C30.3665 13.9082 28.5791 15.6956 28.5791 17.8926V53.7865C26.9392 52.9083 25.0941 52.436 23.214 52.436C22.2265 52.436 21.3138 52.8703 20.6834 53.575C19.0076 52.5989 17.0624 52.0368 14.9874 52.0368C13.1163 52.0368 11.5938 53.5591 11.5938 55.4304V64.1998C11.5938 65.5396 11.8615 66.8428 12.3898 68.0734L20.6933 87.4236C21.7746 89.9439 23.6784 92.087 26.0533 93.4581L38.7125 100.767C40.7121 101.921 41.9544 104.073 41.9544 106.382V115.451C41.9544 116.185 42.5492 116.779 43.2825 116.779C44.0159 116.779 44.6107 116.185 44.6107 115.451V106.382C44.6107 103.127 42.8597 100.094 40.0406 98.4665L27.3814 91.1578C25.4995 90.0714 23.991 88.3732 23.1341 86.3763L14.8307 67.026C14.4452 66.1282 14.25 65.1773 14.25 64.1998V55.4304C14.25 55.0238 14.5807 54.6931 14.9874 54.6931C19.784 54.6931 23.6866 58.5954 23.6866 63.3923C23.6866 65.7577 24.3005 68.0973 25.4618 70.158L31.908 81.5956C32.8541 83.274 34.4856 84.4231 36.4063 84.7514L48.9141 86.6802C49.4666 86.766 50.0132 86.4955 50.2815 86.0049C50.5498 85.5146 50.4823 84.9084 50.1126 84.489L40.34 73.4037C39.7768 72.7649 39.3545 72.0317 39.0841 71.2245L37.2351 65.7022C36.9825 64.9473 37.0587 64.1498 37.4505 63.4568C37.842 62.7638 38.4854 62.287 39.2623 62.1138C42.3019 61.4357 45.3844 63.1373 46.4321 66.0703C47.021 67.7193 47.8821 69.2419 48.9914 70.5963L60.5306 84.6845C61.926 86.388 62.6944 88.5385 62.6944 90.7402V115.451C62.6944 116.185 63.2892 116.779 64.0225 116.779C64.7559 116.779 65.3507 116.185 65.3507 115.451V90.7402C65.3507 89.619 65.1924 88.509 64.8919 87.4406H71.1126C70.8122 88.509 70.6539 89.619 70.6539 90.7402V115.451C70.6539 116.185 71.2486 116.779 71.982 116.779C72.7154 116.779 73.3101 116.185 73.3101 115.451V90.7402C73.3101 88.5385 74.0786 86.3877 75.4739 84.6845L87.0132 70.5963C88.1224 69.2421 88.9833 67.7193 89.5725 66.0703C90.6199 63.1373 93.7024 61.4367 96.7422 62.1138C97.5189 62.2867 98.1625 62.7638 98.5541 63.4568C98.9456 64.1498 99.0221 64.9473 98.7695 65.7022L96.9205 71.2245C96.6501 72.0317 96.2277 72.7649 95.6646 73.4037L85.8917 84.489C85.522 84.9084 85.4545 85.5143 85.7228 86.0049C85.9911 86.4955 86.5383 86.7662 87.0902 86.6802L99.6198 84.748C101.519 84.4229 103.15 83.274 104.096 81.5956L110.543 70.1577C111.704 68.097 112.318 65.7574 112.318 63.392C112.318 58.5954 116.22 54.6928 121.017 54.6928C121.423 54.6928 121.754 55.0235 121.754 55.4302V64.1995C121.754 65.177 121.559 66.1277 121.173 67.0258L112.87 86.376C112.013 88.373 110.505 90.0711 108.623 91.1575L95.9634 98.4662C93.1446 100.094 91.3933 103.127 91.3933 106.382V115.451C91.3933 116.184 91.9881 116.779 92.7215 116.779C93.4549 116.779 94.0496 116.184 94.0496 115.451V106.382C94.0496 104.072 95.2919 101.921 97.2915 100.767L109.951 93.4578C112.326 92.0867 114.229 89.9436 115.311 87.4234L123.614 68.0731C124.142 66.8425 124.41 65.5393 124.41 64.1995V55.4302C124.409 53.5591 122.887 52.0368 121.016 52.0368ZM109.661 63.3923C109.661 65.3019 109.165 67.1904 108.228 68.8538L107.424 70.2794V56.9458C108.949 55.75 110.845 55.0923 112.789 55.0923C112.925 55.0923 113.054 55.1321 113.166 55.1991C111.008 57.2672 109.661 60.1745 109.661 63.3923Z" fill="#D8443C"/>
<path d="M108.625 107.859C107.596 107.859 106.629 107.458 105.901 106.731C105.174 106.003 104.773 105.036 104.773 104.007C104.773 102.979 105.174 102.011 105.901 101.284C106.629 100.556 107.596 100.156 108.625 100.156C109.654 100.156 110.621 100.556 111.348 101.284V101.284V101.284C112.076 102.011 112.477 102.978 112.477 104.007C112.477 105.036 112.076 106.003 111.348 106.731C110.621 107.458 109.654 107.859 108.625 107.859ZM108.625 102.812C108.306 102.812 108.006 102.936 107.78 103.162C107.554 103.388 107.43 103.688 107.43 104.007C107.43 104.327 107.554 104.627 107.78 104.853C108.006 105.079 108.305 105.203 108.625 105.203C108.944 105.203 109.244 105.078 109.47 104.853C109.696 104.627 109.82 104.327 109.82 104.007C109.82 103.688 109.696 103.388 109.47 103.162V103.162C109.244 102.936 108.944 102.812 108.625 102.812Z" fill="#ECC2C0"/>
<path d="M21.1484 34.0106C20.1197 34.0106 19.1525 33.6101 18.425 32.8822C17.6977 32.155 17.2969 31.1878 17.2969 30.1591C17.2969 29.1303 17.6974 28.1632 18.425 27.4356C19.9266 25.9338 22.3703 25.934 23.8719 27.4356C24.5994 28.1632 25 29.1303 25 30.1591C25 31.1878 24.5994 32.1552 23.8719 32.8825C23.1443 33.6098 22.1772 34.0106 21.1484 34.0106ZM21.1484 28.9643C20.8422 28.9643 20.5362 29.0806 20.3032 29.3138C20.0774 29.5396 19.9531 29.8398 19.9531 30.1591C19.9531 30.4783 20.0774 30.7785 20.3032 31.0043C20.5293 31.2303 20.8292 31.3544 21.1484 31.3544C21.4677 31.3544 21.7679 31.2301 21.9937 31.0043C22.2194 30.7785 22.3438 30.4783 22.3438 30.1591C22.3438 29.8398 22.2194 29.5396 21.9937 29.3138C21.7607 29.0809 21.4547 28.9643 21.1484 28.9643Z" fill="#ECC2C0"/>
<path d="M116.154 46.1991C115.125 46.1991 114.158 45.7986 113.431 45.071C111.929 43.5695 111.929 41.126 113.431 39.6241C114.932 38.1228 117.376 38.1226 118.878 39.6241C120.379 41.126 120.379 43.5695 118.878 45.071C118.15 45.7986 117.183 46.1991 116.154 46.1991ZM116.154 41.1528C115.848 41.1528 115.542 41.2691 115.309 41.5024C114.843 41.9683 114.843 42.7266 115.309 43.1928C115.535 43.4186 115.835 43.5429 116.154 43.5429C116.473 43.5429 116.773 43.4186 116.999 43.1928C117.465 42.7266 117.465 41.9683 116.999 41.5024C116.767 41.2691 116.46 41.1528 116.154 41.1528Z" fill="#ECC2C0"/>
<path d="M23.6718 100.044C23.3318 100.044 22.9921 99.9145 22.7326 99.6553L21.1484 98.0711L19.5642 99.6553C19.0454 100.174 18.2047 100.174 17.6859 99.6553C17.1672 99.1365 17.1672 98.2956 17.6859 97.7771L20.2094 95.2536C20.7282 94.7351 21.5689 94.7351 22.0876 95.2536L24.6111 97.7771C25.1298 98.2958 25.1298 99.1368 24.6111 99.6553C24.3515 99.9145 24.0118 100.044 23.6718 100.044Z" fill="#ECC2C0"/>
<path d="M21.9062 42.2812C21.5662 42.2812 21.2264 42.1516 20.9669 41.8924L19.3827 40.3082L17.7986 41.8924C17.2798 42.4109 16.4391 42.4109 15.9203 41.8924C15.4016 41.3736 15.4016 40.5326 15.9203 40.0141L18.4438 37.4907C18.9625 36.9722 19.8032 36.9722 20.322 37.4907L22.8454 40.0141C23.3642 40.5329 23.3642 41.3739 22.8454 41.8924C22.5859 42.1516 22.2462 42.2812 21.9062 42.2812Z" fill="#ECC2C0"/>
</g>
<defs>
<clipPath id="clip0_6853_750">
<rect width="136" height="136" fill="white"/>
</clipPath>
</defs>
</svg>
