<svg width="136" height="136" viewBox="0 0 136 136" fill="none" xmlns="http://www.w3.org/2000/svg">
<g clip-path="url(#clip0_6853_821)">
<path d="M10.1294 35.7824C15.435 20.454 25.4193 -6.13801 46.7091 1.27957C54.9977 4.16745 57.6006 15.1356 65.9324 16.5028C73.8018 17.794 80.4632 10.0601 87.9501 8.59329C97.2507 6.77137 107.093 9.20875 110.626 18.2833C114.854 29.1404 102.393 41.3228 105.406 51.237C110.375 67.5899 128.744 40.4869 132.029 66.877C136.625 103.806 95.6909 169.546 68.1143 115.486C54.131 88.0736 39.4756 107.298 17.6784 93.6618C-3.01905 80.7139 3.38676 55.2617 10.1294 35.7824Z" fill="#F5F4F2"/>
<path opacity="0.1" d="M126.427 38.8185C126.427 28.3271 117.922 19.8218 107.431 19.8218C100.632 19.8218 94.6713 23.3955 91.3146 28.7646H23.4453C21.9764 28.7646 20.7891 29.9519 20.7891 31.4208V120.517C20.7891 121.986 21.9764 123.173 23.4453 123.173H112.541C114.01 123.173 115.197 121.986 115.197 120.517V56.154C121.816 53.1843 126.427 46.5421 126.427 38.8185Z" fill="#D8443C"/>
<path d="M115.197 24.7803V113.876C115.197 115.345 114.01 116.532 112.541 116.532H23.4453C21.9764 116.532 20.7891 115.345 20.7891 113.876V24.7803C20.7891 23.3114 21.9764 22.124 23.4453 22.124H112.541C114.01 22.124 115.197 23.3114 115.197 24.7803Z" fill="white"/>
<path d="M20.7891 28.5203H115.197V32.1779H20.7891V28.5203Z" fill="#D8443C"/>
<path d="M77.0983 53.471H60.7578C60.0244 53.471 59.4297 52.8763 59.4297 52.1429V22.123H78.4264V52.1429C78.4264 52.8763 77.8319 53.471 77.0983 53.471Z" fill="#ECC2C0"/>
<path d="M66.5625 22.124H71.28V53.4704H66.5625V22.124Z" fill="white"/>
<path d="M77.0983 54.7992H60.7578C59.2932 54.7992 58.1016 53.6076 58.1016 52.1429V20.7949H79.7545V52.1429C79.7545 53.6076 78.5629 54.7992 77.0983 54.7992ZM60.7581 23.4512V52.1429L77.1001 52.1427L77.0985 23.4509H60.7581V23.4512Z" fill="#D8443C"/>
<path d="M106.101 99.4224H90.5312C89.7976 99.4224 89.2031 98.8279 89.2031 98.0943V94.0762C89.2031 93.3428 89.7976 92.748 90.5312 92.748H106.101C106.835 92.748 107.43 93.3428 107.43 94.0762V98.0943C107.43 98.8277 106.835 99.4224 106.101 99.4224Z" fill="#ECC2C0"/>
<path d="M106.101 108.517H90.5312C89.7976 108.517 89.2031 107.923 89.2031 107.189V103.171C89.2031 102.438 89.7976 101.843 90.5312 101.843H106.101C106.835 101.843 107.43 102.438 107.43 103.171V107.189C107.43 107.922 106.835 108.517 106.101 108.517Z" fill="#ECC2C0"/>
<path d="M55.9579 99.186C55.398 96.5975 53.324 94.6205 50.7974 94.0972C50.7907 93.3694 50.1997 92.781 49.4706 92.781C48.7412 92.781 48.1504 93.3694 48.1438 94.0972C45.6172 94.6202 43.5434 96.5972 42.9832 99.1858C42.8982 99.5781 42.9954 99.9879 43.2475 100.301C43.4996 100.613 43.8797 100.795 44.2813 100.795H48.1427V105.121C48.1427 105.243 48.0428 105.343 47.9201 105.343C47.7974 105.343 47.6973 105.243 47.6973 105.121C47.6973 104.387 47.1025 103.792 46.3691 103.792C45.6358 103.792 45.041 104.387 45.041 105.121C45.041 106.708 46.3325 107.999 47.9201 107.999C49.5075 107.999 50.799 106.708 50.799 105.121V100.795H54.6604C55.062 100.795 55.4418 100.613 55.6942 100.301C55.9457 99.9882 56.0429 99.5786 55.9579 99.186ZM46.3399 98.1387C47.0789 97.2031 48.2243 96.6121 49.4703 96.6121C50.7164 96.6121 51.8617 97.2031 52.601 98.1387H46.3399Z" fill="#D8443C"/>
<path d="M36.9755 92.9836H30.9062C30.1729 92.9836 29.5781 93.5784 29.5781 94.3118V97.108C29.5781 99.0505 30.8547 100.699 32.6126 101.262V105.344H31.9982C31.2648 105.344 30.6701 105.938 30.6701 106.672C30.6701 107.405 31.2648 108 31.9982 108H35.8833C36.6167 108 37.2114 107.405 37.2114 106.672C37.2114 105.938 36.6167 105.344 35.8833 105.344H35.2689V101.262C37.0268 100.699 38.3034 99.0503 38.3034 97.108V94.3118C38.3036 93.5781 37.7089 92.9836 36.9755 92.9836ZM35.6474 97.1077C35.6474 98.0486 34.8819 98.8141 33.941 98.8141C33.0002 98.8141 32.2346 98.0486 32.2346 97.1077V95.6396H35.6477V97.1077H35.6474Z" fill="#D8443C"/>
<path d="M31.2009 77.3381V82.997C31.2009 83.7304 31.7957 84.3251 32.529 84.3251C33.2624 84.3251 33.8572 83.7304 33.8572 82.997V77.3381C33.9982 77.387 34.1448 77.4162 34.2925 77.4162C34.6325 77.4162 34.9725 77.2866 35.2318 77.0273C35.7505 76.5085 35.7505 75.6676 35.2318 75.1491L33.4683 73.3856C32.9694 72.8751 32.0889 72.8751 31.5901 73.3856L29.8266 75.1491C29.3078 75.6678 29.3078 76.5088 29.8266 77.0273C30.1984 77.3992 30.735 77.4999 31.2009 77.3381Z" fill="#D8443C"/>
<path d="M39.2324 77.3379V82.9968C39.2324 83.7302 39.8272 84.3249 40.5606 84.3249C41.294 84.3249 41.8887 83.7302 41.8887 82.9968V77.3379C42.0297 77.3868 42.1764 77.416 42.324 77.416C42.664 77.416 43.004 77.2864 43.2633 77.0271C43.7821 76.5084 43.7821 75.6674 43.263 75.1489L41.4998 73.3857C41.002 72.8741 40.1196 72.8754 39.6213 73.3854L37.8578 75.1489C37.3391 75.6677 37.3391 76.5086 37.8578 77.0271C38.2302 77.399 38.7668 77.4997 39.2324 77.3379Z" fill="#D8443C"/>
<path d="M43.6518 86.8872C43.6518 86.1538 43.057 85.5591 42.3237 85.5591H31.0234C30.29 85.5591 29.6953 86.1538 29.6953 86.8872C29.6953 87.6206 30.29 88.2153 31.0234 88.2153H42.3237C43.0573 88.2153 43.6518 87.6206 43.6518 86.8872Z" fill="#D8443C"/>
<path d="M106.104 86.8195H97.5938C96.8604 86.8195 96.2656 86.225 96.2656 85.4913V76.9807C96.2656 76.2471 96.8604 75.6526 97.5938 75.6526H106.104C106.838 75.6526 107.433 76.2471 107.433 76.9807V85.4913C107.433 86.225 106.838 86.8195 106.104 86.8195Z" fill="#ECC2C0"/>
<path d="M120.847 45.6165C128.264 38.1989 128.264 26.1727 120.847 18.7551C113.429 11.3376 101.403 11.3376 93.9854 18.7551C86.5678 26.1727 86.5678 38.1989 93.9854 45.6165C101.403 53.034 113.429 53.034 120.847 45.6165Z" fill="#ECC2C0"/>
<path d="M127.757 32.1779C127.757 20.9709 118.639 11.853 107.432 11.853C97.854 11.853 89.4866 18.6493 87.5358 28.0129C87.3863 28.7311 87.8472 29.4345 88.5651 29.584C89.2834 29.7338 89.9865 29.2727 90.1363 28.5547C91.8321 20.4162 99.1057 14.5093 107.432 14.5093C117.174 14.5093 125.1 22.4353 125.1 32.1779C125.1 41.9202 117.174 49.8464 107.432 49.8464C99.0974 49.8464 91.822 43.9326 90.1326 35.7848C89.9838 35.0665 89.2805 34.6054 88.5625 34.7539C87.8442 34.9029 87.3828 35.606 87.5316 36.324C89.4754 45.6984 97.8448 52.5027 107.432 52.5027C109.682 52.5027 111.846 52.1295 113.871 51.4511V113.877C113.871 114.61 113.275 115.205 112.543 115.205H23.4453C22.713 115.205 22.1172 114.61 22.1172 113.877V24.7794C22.1172 24.0471 22.713 23.4513 23.4453 23.4513H83.4187C84.152 23.4513 84.7468 22.8565 84.7468 22.1232C84.7468 21.3898 84.152 20.795 83.4187 20.795H23.4453C21.2483 20.795 19.4609 22.5824 19.4609 24.7794V113.877C19.4609 116.074 21.2483 117.862 23.4453 117.862H112.543C114.74 117.862 116.527 116.074 116.527 113.877V50.3455C123.179 47.0019 127.757 40.1163 127.757 32.1779Z" fill="#D8443C"/>
<path d="M104.975 41.5684C104.917 41.5684 104.859 41.566 104.801 41.5607C104.052 41.4951 103.404 41.0137 103.125 40.3159L100.969 34.9253C100.925 34.8159 100.821 34.7453 100.703 34.7453C99.6026 34.7453 98.7109 33.8533 98.7109 32.7531C98.7109 31.6528 99.6026 30.7609 100.703 30.7609C102.459 30.7609 104.016 31.8146 104.669 33.4455L105.361 35.1764L112.466 23.7285C113.046 22.7935 114.274 22.5063 115.209 23.0864C116.144 23.6666 116.431 24.8948 115.851 25.8298L106.667 40.6267C106.302 41.2156 105.66 41.5684 104.975 41.5684Z" fill="#D8443C"/>
<path d="M86.1856 12.4585C85.1993 12.4585 84.213 12.0829 83.4621 11.3322C81.9605 9.83038 81.9605 7.38689 83.4621 5.88532C84.9637 4.38347 87.4075 4.38374 88.909 5.88532C90.4106 7.38716 90.4106 9.83064 88.909 11.3322C88.1584 12.0831 87.1718 12.4585 86.1856 12.4585ZM86.1856 7.41399C85.8793 7.41399 85.5733 7.53033 85.3404 7.76355C84.8742 8.22946 84.8742 8.98782 85.3404 9.45399C85.806 9.91989 86.5646 9.92016 87.0308 9.45399C87.497 8.98808 87.497 8.22972 87.0308 7.76355C86.7978 7.5306 86.4918 7.41399 86.1856 7.41399Z" fill="#ECC2C0"/>
<path d="M123.904 63.4219C122.875 63.4219 121.908 63.0213 121.181 62.2935C119.679 60.7919 119.679 58.3484 121.181 56.8468C122.683 55.345 125.126 55.345 126.628 56.8468C128.129 58.3487 128.129 60.7922 126.628 62.2937C125.9 63.021 124.933 63.4219 123.904 63.4219ZM123.904 58.3755C123.598 58.3755 123.292 58.4919 123.059 58.7251C122.593 59.191 122.593 59.9493 123.059 60.4155C123.285 60.6416 123.585 60.7656 123.904 60.7656C124.223 60.7656 124.524 60.6413 124.749 60.4155C125.215 59.9493 125.215 59.191 124.749 58.7248C124.516 58.4919 124.21 58.3755 123.904 58.3755Z" fill="#ECC2C0"/>
<path d="M14.4999 62.1601C14.1599 62.1601 13.8202 62.0305 13.5607 61.7713L11.9765 60.1871L10.3923 61.7713C9.87354 62.2898 9.03284 62.2898 8.51407 61.7713C7.99531 61.2525 7.99531 60.4115 8.51407 59.893L11.0375 57.3696C11.5563 56.8511 12.397 56.8511 12.9157 57.3696L15.4392 59.893C15.9579 60.4118 15.9579 61.2528 15.4392 61.7713C15.1797 62.0302 14.8399 62.1601 14.4999 62.1601Z" fill="#ECC2C0"/>
<path d="M72.3671 14.6238C72.0271 14.6238 71.6874 14.4941 71.4279 14.2349L69.8437 12.6507L68.2595 14.2349C67.7407 14.7534 66.9 14.7534 66.3813 14.2349C65.8625 13.7161 65.8625 12.8751 66.3813 12.3566L68.9047 9.83321C69.4235 9.31471 70.2642 9.31471 70.7829 9.83321L73.3064 12.3566C73.8251 12.8754 73.8251 13.7164 73.3064 14.2349C73.0469 14.4939 72.7069 14.6238 72.3671 14.6238Z" fill="#ECC2C0"/>
<path d="M90.8046 127.091C90.4646 127.091 90.1249 126.961 89.8654 126.702L88.2812 125.118L86.697 126.702C86.1782 127.221 85.3375 127.221 84.8188 126.702C84.3 126.183 84.3 125.342 84.8188 124.824L87.3422 122.3C87.861 121.782 88.7017 121.782 89.2204 122.3L91.7439 124.824C92.2626 125.343 92.2626 126.184 91.7439 126.702C91.4844 126.961 91.1446 127.091 90.8046 127.091Z" fill="#ECC2C0"/>
</g>
<defs>
<clipPath id="clip0_6853_821">
<rect width="136" height="136" fill="white"/>
</clipPath>
</defs>
</svg>
