<svg width="136" height="136" viewBox="0 0 136 136" fill="none" xmlns="http://www.w3.org/2000/svg">
<g clip-path="url(#clip0_6853_783)">
<path d="M97.6441 13.7672C79.3798 6.38042 53.9438 8.81833 39.7586 21.4754C29.7427 30.4123 37.3855 33.0792 43.9555 49.7155C48.7104 61.7563 0.248222 59.5548 0.00172227 81.2115C-0.283293 106.249 34.8841 101.902 47.8817 104.916C67.7542 109.525 84.9475 126.115 106.258 124.196C124.811 122.526 132.041 108.065 134.807 91.4235C139.962 60.4205 128.558 26.2702 97.6441 13.7672Z" fill="#F5F4F2"/>
<path opacity="0.1" d="M112.06 73.239H109.011V71.3438C109.011 70.6104 108.416 70.0156 107.683 70.0156C107.008 70.0156 106.457 70.5209 106.372 71.1724L73.3245 55.9394C73.3702 55.6974 73.405 55.4522 73.4167 55.2009C73.512 53.1176 72.4378 51.1988 70.613 50.1928C69.819 49.7551 69.3255 48.9638 69.3255 48.1276V41.5226H71.8444C73.3115 41.5226 74.5007 40.3334 74.5007 38.8663V33.9889H75.2473C75.9807 33.9889 76.5755 33.3942 76.5755 32.6608V22.9878H59.4193V32.6605C59.4193 33.3939 60.014 33.9887 60.7474 33.9887H61.4941V38.8661C61.4941 40.3331 62.6833 41.5223 64.1503 41.5223H66.6695V48.1276C66.6695 49.9317 67.6895 51.6145 69.3308 52.5192C70.1675 52.9803 70.6913 53.8186 70.7554 54.7552L68.5533 53.7403C68.2006 53.5777 67.7944 53.5777 67.4414 53.7403L65.2107 54.7685C65.123 54.1201 64.5732 53.6183 63.9006 53.6183C63.167 53.6183 62.5725 54.2131 62.5725 54.9465C62.5725 55.2846 62.607 55.6164 62.6668 55.9412L29.6231 71.1727C29.5381 70.5211 28.9872 70.0159 28.3122 70.0159C27.5785 70.0159 26.9841 70.6106 26.9841 71.344V73.2393H23.9358C22.2764 73.2393 20.9297 74.586 20.9297 76.2453V80.4536V116.577V120.782C20.9297 122.442 22.2764 123.788 23.9358 123.788H28.3125H107.683H112.06C113.719 123.788 115.066 122.442 115.066 120.782V116.577V80.4534V76.2451C115.066 74.5855 113.719 73.239 112.06 73.239ZM67.9976 56.4087L69.6403 57.166C69.2121 57.485 68.692 57.6861 68.1302 57.7119C67.4794 57.743 66.8597 57.5496 66.3492 57.1687L67.9976 56.4087ZM64.2513 58.8697C65.2707 59.8433 66.5912 60.3711 67.9934 60.3711C68.0792 60.3711 68.1655 60.3692 68.2521 60.3649C69.8368 60.2922 71.2555 59.5157 72.2049 58.3478L104.51 73.2387H31.4854L63.7808 58.3523C63.9269 58.5321 64.0807 58.7069 64.2513 58.8697Z" fill="#D8443C"/>
<path d="M115.066 69.6042V114.141C115.066 115.8 113.719 117.147 112.06 117.147H23.9358C22.2764 117.147 20.9297 115.8 20.9297 114.141V69.6042C20.9297 67.9449 22.2764 66.5981 23.9358 66.5981H112.06C113.719 66.5984 115.066 67.9449 115.066 69.6042Z" fill="white"/>
<path d="M23.9358 66.5984H28.3125V73.8128H20.9297V69.6045C20.9297 67.9451 22.2764 66.5984 23.9358 66.5984Z" fill="white"/>
<path d="M20.9297 109.936H28.3125V117.147H23.9358C22.2764 117.147 20.9297 115.801 20.9297 114.141V109.936Z" fill="white"/>
<path d="M115.062 69.6045V73.8128H107.68V66.5984H112.056C113.716 66.5984 115.062 67.9451 115.062 69.6045Z" fill="white"/>
<path d="M107.68 109.936H115.062V114.141C115.062 115.801 113.716 117.147 112.056 117.147H107.68V109.936Z" fill="white"/>
<path d="M25.4375 71.1074H110.555V112.638H25.4375V71.1074Z" fill="#ECC2C0"/>
<path d="M97.0263 109.935C95.7218 109.935 94.6641 108.877 94.6641 107.573V76.1735C94.6641 74.869 95.7215 73.8113 97.0263 73.8113C98.3308 73.8113 99.3885 74.8687 99.3885 76.1735V107.573C99.3882 108.877 98.3308 109.935 97.0263 109.935Z" fill="white"/>
<path d="M105.323 109.935C104.019 109.935 102.961 108.877 102.961 107.573V76.1735C102.961 74.869 104.018 73.8113 105.323 73.8113C106.628 73.8113 107.685 74.8687 107.685 76.1735V107.573C107.685 108.877 106.628 109.935 105.323 109.935Z" fill="white"/>
<path d="M47.2606 109.935C45.9562 109.935 44.8984 108.877 44.8984 107.573V76.1735C44.8984 74.869 45.9559 73.8113 47.2606 73.8113C48.5651 73.8113 49.6228 74.8687 49.6228 76.1735V107.573C49.6228 108.877 48.5654 109.935 47.2606 109.935Z" fill="white"/>
<path d="M30.6747 109.935C29.3702 109.935 28.3125 108.877 28.3125 107.573V76.1735C28.3125 74.869 29.37 73.8113 30.6747 73.8113C31.9792 73.8113 33.0369 74.8687 33.0369 76.1735V107.573C33.0366 108.877 31.9792 109.935 30.6747 109.935Z" fill="white"/>
<path d="M38.9716 109.935C37.6671 109.935 36.6094 108.877 36.6094 107.573V76.1735C36.6094 74.869 37.6668 73.8113 38.9716 73.8113C40.2761 73.8113 41.3338 74.8687 41.3338 76.1735V107.573C41.3338 108.877 40.2761 109.935 38.9716 109.935Z" fill="white"/>
<path d="M55.5575 109.935C54.253 109.935 53.1953 108.877 53.1953 107.573V76.1735C53.1953 74.869 54.2528 73.8113 55.5575 73.8113C56.862 73.8113 57.9197 74.8687 57.9197 76.1735V107.573C57.9195 108.877 56.862 109.935 55.5575 109.935Z" fill="white"/>
<path d="M63.8466 109.935C62.5421 109.935 61.4844 108.877 61.4844 107.573V76.1735C61.4844 74.869 62.5418 73.8113 63.8466 73.8113C65.1511 73.8113 66.2088 74.8687 66.2088 76.1735V107.573C66.2088 108.877 65.1511 109.935 63.8466 109.935Z" fill="white"/>
<path d="M72.1435 109.935C70.839 109.935 69.7812 108.877 69.7812 107.573V76.1735C69.7812 74.869 70.8387 73.8113 72.1435 73.8113C73.4479 73.8113 74.5057 74.8687 74.5057 76.1735V107.573C74.5057 108.877 73.4482 109.935 72.1435 109.935Z" fill="white"/>
<path d="M80.4403 109.935C79.1358 109.935 78.0781 108.877 78.0781 107.573V76.1735C78.0781 74.869 79.1356 73.8113 80.4403 73.8113C81.7448 73.8113 82.8025 74.8687 82.8025 76.1735V107.573C82.8023 108.877 81.7448 109.935 80.4403 109.935Z" fill="white"/>
<path d="M88.7294 109.935C87.4249 109.935 86.3672 108.877 86.3672 107.573V76.1735C86.3672 74.869 87.4246 73.8113 88.7294 73.8113C90.0339 73.8113 91.0916 74.8687 91.0916 76.1735V107.573C91.0916 108.877 90.0339 109.935 88.7294 109.935Z" fill="white"/>
<path d="M71.8425 32.2258H64.1484C62.6814 32.2258 61.4922 31.0366 61.4922 29.5696V24.6919H74.4988V29.5693C74.4988 31.0363 73.3096 32.2258 71.8425 32.2258Z" fill="white"/>
<path d="M76.5781 16.3472V23.3637C76.5781 24.097 75.9833 24.6918 75.2499 24.6918H60.75C60.0166 24.6918 59.4219 24.097 59.4219 23.3637V16.3472H76.5781Z" fill="white"/>
<path d="M68.6641 16.3472H73.0283V24.6918H68.6641V16.3472Z" fill="#ECC2C0"/>
<path d="M112.058 65.2716H109.01V64.7031C109.01 63.9695 108.415 63.375 107.681 63.375C107.007 63.375 106.456 63.88 106.371 64.5315L73.3234 49.2985C73.3691 49.0565 73.4039 48.8113 73.4156 48.56C73.511 46.4765 72.4368 44.5579 70.6119 43.552C69.818 43.1145 69.3244 42.3232 69.3244 41.487V33.5536H71.8434C74.0403 33.5536 75.8277 31.7662 75.8277 29.5692V25.9538C77.0132 25.6876 77.9023 24.6283 77.9023 23.3637V16.3472C77.9023 15.6135 77.3078 15.019 76.5741 15.019C75.8405 15.019 75.246 15.6135 75.246 16.3472V23.3637H60.7461V16.3472C60.7461 15.6135 60.1516 15.019 59.418 15.019C58.6843 15.019 58.0898 15.6135 58.0898 16.3472V23.3637C58.0898 24.6283 58.9791 25.6876 60.1646 25.9538V29.5692C60.1646 31.7662 61.952 33.5536 64.149 33.5536H66.6684V41.487C66.6684 43.2911 67.6884 44.9738 69.33 45.8783C70.1667 46.3394 70.6903 47.1775 70.7543 48.1143L68.5523 47.0994C68.1995 46.9371 67.7934 46.9371 67.4404 47.0994L65.2096 48.1276C65.122 47.479 64.5721 46.9774 63.8996 46.9774C63.1659 46.9774 62.5715 47.5719 62.5715 48.3056C62.5715 48.6437 62.606 48.9755 62.6657 49.3001L29.622 64.5313C29.537 63.8797 28.9861 63.3747 28.3111 63.3747C27.5775 63.3747 26.983 63.9692 26.983 64.7029V65.2713H23.9358C21.5459 65.2713 19.6016 67.2157 19.6016 69.6055V84.7363C19.6016 85.47 20.196 86.0644 20.9297 86.0644C21.6633 86.0644 22.2578 85.47 22.2578 84.7363V69.6055C22.2578 68.6803 23.0106 67.9276 23.9358 67.9276H26.9833V71.5334C26.9833 72.2671 27.5778 72.8615 28.3114 72.8615C29.0451 72.8615 29.6395 72.2671 29.6395 71.5334V67.9276H106.354V71.5334C106.354 72.2671 106.948 72.8615 107.682 72.8615C108.415 72.8615 109.01 72.2671 109.01 71.5334V67.9276H112.058C112.983 67.9276 113.736 68.6803 113.736 69.6055V114.14C113.736 115.065 112.983 115.818 112.058 115.818H95.3966C94.6629 115.818 94.0685 116.412 94.0685 117.146C94.0685 117.88 94.6629 118.474 95.3966 118.474H112.058C114.448 118.474 116.392 116.53 116.392 114.14V69.6055C116.392 67.216 114.447 65.2716 112.058 65.2716ZM62.8214 29.5692V26.0199H73.172V29.5692C73.172 30.3015 72.5762 30.8973 71.8439 30.8973H64.1495C63.4172 30.8973 62.8214 30.3015 62.8214 29.5692ZM67.9966 49.7681L69.6392 50.5251C69.211 50.8442 68.6909 51.045 68.1291 51.0707C67.4786 51.1007 66.8589 50.9082 66.3484 50.5278L67.9966 49.7681ZM64.2502 52.2289C65.2697 53.2026 66.5901 53.7304 67.9926 53.7304C68.0781 53.7304 68.1645 53.7283 68.251 53.7243C69.8358 53.6515 71.2542 52.8754 72.2035 51.7072L101.63 65.2713H34.3626L63.78 51.7117C63.9259 51.8915 64.0799 52.066 64.2502 52.2289Z" fill="#D8443C"/>
<path d="M87.626 115.818H23.9358C23.0106 115.818 22.2578 115.066 22.2578 114.141V92.5066C22.2578 91.7729 21.6633 91.1785 20.9297 91.1785C20.196 91.1785 19.6016 91.7729 19.6016 92.5066V114.14C19.6016 116.53 21.5459 118.474 23.9358 118.474H87.626C88.3596 118.474 88.9541 117.88 88.9541 117.146C88.9541 116.413 88.3596 115.818 87.626 115.818Z" fill="#D8443C"/>
<path d="M23.4512 51.0063C22.4222 51.0063 21.4551 50.6055 20.7275 49.878C19.2262 48.3764 19.2262 45.9329 20.7278 44.4313C22.2291 42.9292 24.6731 42.9297 26.1744 44.4313C27.6763 45.9329 27.6763 48.3764 26.1744 49.878C25.4469 50.6055 24.48 51.0063 23.4512 51.0063ZM23.451 45.96C23.1452 45.96 22.839 46.0766 22.6057 46.3093C22.1398 46.7755 22.1398 47.5336 22.6057 47.9997C22.8318 48.2258 23.1317 48.3498 23.4512 48.3498C23.7702 48.3498 24.0704 48.2255 24.2962 47.9997C24.7624 47.5336 24.7624 46.7755 24.2965 46.3093C24.063 46.0763 23.757 45.96 23.451 45.96Z" fill="#ECC2C0"/>
<path d="M86.5764 29.1003C85.5477 29.1003 84.5803 28.6995 83.8527 27.9719C82.3511 26.4704 82.3511 24.0269 83.853 22.5253C85.3543 21.0235 87.7986 21.0235 89.2999 22.5253C90.8017 24.0269 90.8017 26.4704 89.2999 27.9719C88.5726 28.6995 87.6052 29.1003 86.5764 29.1003ZM86.5764 24.054C86.2704 24.054 85.9642 24.1703 85.731 24.4033C85.265 24.8694 85.265 25.6275 85.731 26.0937C85.9567 26.3198 86.2569 26.4438 86.5764 26.4438C86.8957 26.4438 87.1959 26.3195 87.4217 26.0937C87.8878 25.6275 87.8878 24.8694 87.4219 24.4033C87.1887 24.1703 86.8824 24.054 86.5764 24.054Z" fill="#ECC2C0"/>
<path d="M77.0312 126.378C76.6915 126.378 76.3512 126.248 76.0922 125.989L74.5077 124.405L72.9233 125.989C72.4051 126.507 71.5636 126.507 71.0453 125.989C70.5266 125.47 70.5266 124.629 71.0453 124.111L73.5688 121.587C74.087 121.069 74.9285 121.069 75.4467 121.587L77.9702 124.111C78.4889 124.629 78.4889 125.47 77.9702 125.989C77.7109 126.248 77.3709 126.378 77.0312 126.378Z" fill="#ECC2C0"/>
<path d="M126.226 99.3962C125.887 99.3962 125.546 99.2666 125.288 99.007L123.703 97.4229L122.119 99.007C121.6 99.5258 120.759 99.5258 120.241 99.007C119.722 98.4885 119.722 97.6476 120.241 97.1291L122.764 94.6056C123.282 94.0869 124.124 94.0869 124.642 94.6056L127.165 97.1291C127.684 97.6476 127.684 98.4885 127.165 99.007C126.906 99.2666 126.566 99.3962 126.226 99.3962Z" fill="#ECC2C0"/>
<path d="M34.0077 56.3906C33.668 56.3906 33.3277 56.2609 33.0688 56.0014L31.4843 54.4172L29.8999 56.0014C29.3816 56.5202 28.5401 56.5202 28.0219 56.0014C27.5031 55.4829 27.5031 54.6419 28.0219 54.1234L30.5453 51.6C31.0636 51.0812 31.9051 51.0812 32.4233 51.6L34.9467 54.1234C35.4655 54.6419 35.4655 55.4829 34.9467 56.0014C34.6875 56.2609 34.3475 56.3906 34.0077 56.3906Z" fill="#ECC2C0"/>
</g>
<defs>
<clipPath id="clip0_6853_783">
<rect width="136" height="136" fill="white"/>
</clipPath>
</defs>
</svg>
