<svg width="136" height="136" viewBox="0 0 136 136" fill="none" xmlns="http://www.w3.org/2000/svg">
<g clip-path="url(#clip0_6853_713)">
<path d="M136 68C136 60.6605 132.679 53.7798 126.877 47.8558C122.839 43.7338 119.478 39.0118 116.912 33.8438C108.707 17.3174 94.7182 6.43237 78.8386 6.43237C67.554 6.43237 57.2249 11.9303 49.2471 21.0425C43.9665 27.0741 37.2991 31.7007 29.86 34.688C11.8402 41.9241 0 54.1431 0 68C0 81.8569 11.8402 94.0759 29.86 101.312C37.2991 104.299 43.9665 108.926 49.2474 114.957C57.2252 124.07 67.554 129.568 78.8386 129.568C94.7182 129.568 108.707 118.683 116.912 102.156C119.478 96.9882 122.839 92.2664 126.877 88.1442C132.679 82.2202 136 75.3395 136 68Z" fill="#F5F4F2"/>
<path opacity="0.1" d="M68.8294 26.6123C41.5564 26.6123 19.4471 48.7216 19.4471 75.9946C19.4471 80.8641 20.1552 85.5675 21.4685 90.0111C16.7895 93.8569 13.8047 99.6884 13.8047 106.218C13.8047 117.798 23.1927 127.186 34.7734 127.186C40.4036 127.186 45.5115 124.963 49.2784 121.352C55.2743 123.94 61.8836 125.377 68.8294 125.377C96.1025 125.377 118.212 103.267 118.212 75.9944C118.212 48.7213 96.1025 26.6123 68.8294 26.6123Z" fill="#D8443C"/>
<path d="M103.724 105.33C123.006 86.0475 123.006 54.785 103.724 35.5029C84.4422 16.2209 53.1798 16.2209 33.8977 35.5029C14.6156 54.785 14.6156 86.0475 33.8977 105.33C53.1798 124.612 84.4422 124.612 103.724 105.33Z" fill="#ECC2C0"/>
<path d="M97.2813 36.6463L96.2711 42.7267C96.2244 43.0086 96.0552 43.2553 95.8089 43.4006L90.2207 46.6965L82.2103 51.3189C82.0636 51.4036 81.9417 51.5253 81.857 51.6717L77.0728 59.939C76.9249 60.1948 76.902 60.504 77.0109 60.7786L78.6541 64.9247C78.662 64.9449 78.6708 64.9649 78.6801 64.9845L80.0284 67.814C80.2369 68.2514 80.089 68.7755 79.6828 69.0395L75.5197 71.7457C75.2456 71.924 75.0801 72.2286 75.0801 72.5556V76.251C75.0801 76.727 74.7332 77.1321 74.2628 77.2054L71.6586 77.6113C71.385 77.6538 71.143 77.8118 70.9937 78.0448L68.1993 82.4085C68.096 82.57 67.947 82.6969 67.7712 82.7734L63.4428 84.6567C63.3427 84.7003 63.2356 84.7266 63.1267 84.7345L55.2493 85.3011C54.9415 85.3232 54.6628 85.491 54.4992 85.7529L50.4984 92.1566C50.4184 92.2847 50.3092 92.3922 50.1801 92.4706L48.0894 93.7389C47.781 93.9259 47.394 93.9257 47.0859 93.7382L42.281 90.8128C42.0818 90.6917 41.9333 90.5023 41.8626 90.2802L39.9055 84.1196C39.8242 83.8638 39.6401 83.6534 39.3976 83.5387L34.8645 81.3962C34.5959 81.2692 34.4007 81.0259 34.3351 80.7363L33.6957 77.9149C33.6607 77.7597 33.6644 77.5982 33.7066 77.4447L35.7931 69.8741C35.8353 69.7209 35.839 69.5596 35.804 69.4045L34.9258 65.5171C34.869 65.2661 34.9149 65.0028 35.0531 64.7858L36.697 62.2013C36.7956 62.0464 36.8479 61.8663 36.8479 61.6828V53.0564C36.8479 52.8003 36.9496 52.5546 37.1305 52.3734L40.1974 49.3047C40.5743 48.9275 40.5743 48.316 40.1972 47.9388L39.2372 46.9789C39.056 46.7977 38.8103 46.696 38.554 46.696H30.8424C30.7611 46.696 30.6801 46.6856 30.6012 46.6654L27.4219 45.846C26.7903 45.6831 26.497 44.9532 26.8413 44.3988C35.5516 30.372 51.0947 21.0339 68.8212 21.0339C70.6303 21.0339 72.4172 21.132 74.1756 21.3216C74.4819 21.3548 74.7534 21.5344 74.9077 21.8011L78.8514 28.6268C78.963 28.8199 79.138 28.9687 79.3468 29.0473L96.6688 35.5835C97.1007 35.7466 97.3567 36.1916 97.2813 36.6463Z" fill="white"/>
<path d="M92.0057 70.2767L89.3681 71.7905C88.8881 72.066 88.7372 72.6878 89.0376 73.1529L91.1958 76.4918C91.3273 76.695 91.5303 76.8417 91.7643 76.9025L95.8265 77.9573C96.2026 78.055 96.6005 77.9177 96.8367 77.6093L101.761 71.1719C101.999 70.8611 102.026 70.4377 101.829 70.0996L101.271 69.1393C100.981 68.641 100.323 68.5055 99.8603 68.849L99.6212 69.0264C98.8891 69.5696 97.8811 68.8896 98.1106 68.0075C98.233 67.5365 97.9863 67.0481 97.5344 66.8674L95.8374 66.1888C95.4174 66.0209 94.9372 66.1667 94.6816 66.5399L92.3218 69.9856C92.24 70.1046 92.1319 70.2045 92.0057 70.2767Z" fill="white"/>
<path d="M105.05 62.9227L107.721 62.0778C108.007 61.9872 108.319 62.0347 108.565 62.2066L110.969 63.8843C111.309 64.122 111.46 64.551 111.342 64.9494L110.805 66.774C110.588 67.5111 109.639 67.7119 109.142 67.126L107.91 65.6746C107.74 65.4735 107.494 65.3508 107.231 65.3351L105.609 65.2387C105.326 65.222 105.066 65.082 104.895 64.8562L104.57 64.4254C104.169 63.8936 104.415 63.1241 105.05 62.9227Z" fill="white"/>
<path d="M61.3578 21.3263C61.3578 25.4217 56.087 34.5403 53.0382 39.4719C52.0668 41.0431 49.7832 41.0431 48.8118 39.4719C45.763 34.54 40.4922 25.4217 40.4922 21.3263C40.4922 15.5643 45.1632 10.8933 50.9251 10.8933C56.6871 10.8933 61.3578 15.5643 61.3578 21.3263Z" fill="white"/>
<path d="M50.7401 24.8211C52.8317 24.8211 54.5272 23.1256 54.5272 21.0341C54.5272 18.9426 52.8317 17.2471 50.7401 17.2471C48.6486 17.2471 46.9531 18.9426 46.9531 21.0341C46.9531 23.1256 48.6486 24.8211 50.7401 24.8211Z" fill="#ECC2C0"/>
<path d="M86.8735 79.7425C86.8735 83.8379 81.6027 92.9566 78.5538 97.8882C77.5824 99.4593 75.2988 99.4593 74.3275 97.8882C71.2786 92.9563 66.0078 83.8379 66.0078 79.7425C66.0078 73.9806 70.6788 69.3096 76.4408 69.3096C82.2024 69.3096 86.8735 73.9806 86.8735 79.7425Z" fill="white"/>
<path d="M76.2558 83.2374C78.3473 83.2374 80.0428 81.5419 80.0428 79.4503C80.0428 77.3588 78.3473 75.6633 76.2558 75.6633C74.1643 75.6633 72.4688 77.3588 72.4688 79.4503C72.4688 81.5419 74.1643 83.2374 76.2558 83.2374Z" fill="#ECC2C0"/>
<path d="M34.7737 121.608C46.3545 121.608 55.7426 112.22 55.7426 100.639C55.7426 89.0585 46.3545 79.6704 34.7737 79.6704C23.1928 79.6704 13.8047 89.0585 13.8047 100.639C13.8047 112.22 23.1928 121.608 34.7737 121.608Z" fill="white"/>
<path d="M31.1639 104.97C30.6031 104.97 30.0822 104.612 29.9003 104.05L26.1736 92.522H23.3906C22.6572 92.522 22.0625 91.9272 22.0625 91.1938C22.0625 90.4605 22.6572 89.8657 23.3906 89.8657H27.1399C27.7161 89.8657 28.2263 90.2371 28.4038 90.7853L32.4277 103.233C32.6535 103.931 32.2705 104.68 31.5727 104.905C31.4369 104.949 31.2991 104.97 31.1639 104.97Z" fill="#D8443C"/>
<path d="M42.9704 104.97H29.1406C28.4072 104.97 27.8125 104.375 27.8125 103.641C27.8125 102.908 28.4072 102.313 29.1406 102.313H41.8585L42.9789 96.0371H29.1406C28.4072 96.0371 27.8125 95.4424 27.8125 94.709C27.8125 93.9756 28.4072 93.3809 29.1406 93.3809H44.5649C44.9581 93.3809 45.331 93.5548 45.5831 93.8563C45.8354 94.1578 45.9414 94.5555 45.8723 94.9425L44.2778 103.875C44.1649 104.508 43.6137 104.97 42.9704 104.97Z" fill="#D8443C"/>
<path d="M31.9409 113.007C30.052 113.007 28.5156 111.471 28.5156 109.582C28.5156 107.693 30.0523 106.156 31.9409 106.156C33.8295 106.156 35.3661 107.693 35.3661 109.582C35.3661 111.471 33.8297 113.007 31.9409 113.007ZM31.9409 108.813C31.5167 108.813 31.1719 109.158 31.1719 109.582C31.1719 110.006 31.5169 110.351 31.9409 110.351C32.3648 110.351 32.7098 110.006 32.7098 109.582C32.7098 109.158 32.3651 108.813 31.9409 108.813Z" fill="#D8443C"/>
<path d="M41.7143 113.007C39.8257 113.007 38.2891 111.471 38.2891 109.582C38.2891 107.693 39.8257 106.156 41.7143 106.156C43.6032 106.156 45.1398 107.693 45.1398 109.582C45.1398 111.471 43.6032 113.007 41.7143 113.007ZM41.7143 108.813C41.2904 108.813 40.9453 109.158 40.9453 109.582C40.9453 110.006 41.2904 110.351 41.7143 110.351C42.1385 110.351 42.4835 110.006 42.4835 109.582C42.4835 109.158 42.1385 108.813 41.7143 108.813Z" fill="#D8443C"/>
<path d="M119.539 70.4164C119.539 69.683 118.945 69.0883 118.211 69.0883C118.201 69.0883 118.192 69.0909 118.182 69.0912C118.08 69.0904 117.977 69.0978 117.874 69.1215C111.883 70.4855 105.703 71.5812 99.3652 72.4128C99.3806 71.7493 99.3904 71.0842 99.3904 70.4164C99.3904 56.9914 96.2839 44.3501 90.6428 34.8213C90.004 33.7421 89.3397 32.72 88.6541 31.7494C90.7355 31.1605 92.6475 30.4741 94.3448 29.6974C96.2943 30.9185 98.1632 32.2814 99.9317 33.7843C108.501 41.0672 114.27 51.1448 116.177 62.1608C116.302 62.8833 116.99 63.3672 117.712 63.2429C118.435 63.1178 118.919 62.4304 118.794 61.7076C116.781 50.0804 110.694 39.4451 101.652 31.7603C92.5062 23.9867 80.8492 19.7059 68.8289 19.7059C66.7291 19.7059 64.6597 19.8369 62.6266 20.0868C62.005 14.1823 56.9977 9.56543 50.9314 9.56543C44.4461 9.56543 39.1703 14.8413 39.1703 21.3265C39.1703 23.0111 39.9212 25.3738 41.0708 28.0051C27.2605 37.0749 18.1187 52.6955 18.1187 70.4167C18.1187 72.2492 18.221 74.1168 18.4223 75.9672C18.4964 76.6474 19.072 77.1516 19.7409 77.1516C19.789 77.1516 19.8376 77.1489 19.8862 77.1436C20.6156 77.0642 21.1423 76.4086 21.0629 75.6795C20.9319 74.477 20.8485 73.2676 20.8071 72.0665C26.5159 73.3152 32.3862 74.3304 38.397 75.1081C38.4632 76.312 38.5551 77.5065 38.6712 78.6911C37.4044 78.4667 36.1034 78.3429 34.7734 78.3429C22.4787 78.3429 12.4766 88.3453 12.4766 100.64C12.4766 112.935 22.4789 122.937 34.7734 122.937C40.4296 122.937 45.5971 120.816 49.5323 117.333C55.591 119.831 62.1062 121.127 68.8294 121.127C78.3662 121.127 87.2957 118.479 94.9239 113.882C95.0676 113.826 95.2012 113.745 95.3189 113.641C109.837 104.711 119.539 88.6763 119.539 70.4164ZM116.852 72.0697C116.292 88.5177 107.429 102.893 94.3297 111.128C92.6361 110.354 90.7297 109.67 88.6546 109.083C89.3399 108.112 90.004 107.09 90.6428 106.011C95.6217 97.6007 98.6246 86.7646 99.2613 75.1057C105.272 74.3301 111.143 73.3178 116.852 72.0697ZM54.7686 110.492C58.6958 109.769 63.0364 109.346 67.501 109.275V118.415C62.7894 118.03 58.273 115.607 54.2982 111.393C54.4615 111.096 54.618 110.796 54.7686 110.492ZM40.9239 70.4164C40.9239 59.0689 43.2126 48.3384 47.4089 39.7163C47.5024 39.8685 47.5959 40.0207 47.6883 40.1705C48.3883 41.3026 49.6006 41.9786 50.9311 41.9786C52.2616 41.9786 53.4739 41.3028 54.1741 40.1705C55.4457 38.1135 56.7966 35.8328 58.0395 33.549C61.0498 33.9376 64.228 34.1652 67.5008 34.2136V72.1169C66.9207 72.7961 66.4173 73.5415 66.0021 74.3407C57.4408 74.2446 49.0741 73.7123 40.9582 72.7478C40.9362 71.9735 40.9239 71.1965 40.9239 70.4164ZM70.157 22.4169C75.1202 22.8212 79.867 25.4881 83.9921 30.1272C79.7822 30.9801 75.044 31.4798 70.157 31.5568V22.4169ZM62.3442 23.6826C64.0243 22.988 65.749 22.5662 67.5008 22.4227V31.5576C64.7165 31.5135 61.9824 31.3299 59.3644 31.0242C60.7146 28.3443 61.8127 25.7752 62.3442 23.6826ZM76.4438 70.6377C81.4642 70.6377 85.5487 74.7222 85.5487 79.7425C85.5487 82.4819 82.5885 88.8412 77.4275 97.1898C77.1212 97.6852 76.6377 97.7386 76.4438 97.7386C76.2502 97.7386 75.7665 97.6852 75.4605 97.1898C70.2994 88.8412 67.3393 82.4819 67.3393 79.7425C67.339 74.7222 71.4233 70.6377 76.4438 70.6377ZM70.157 109.275C75.044 109.352 79.7825 109.852 83.9932 110.705C79.8677 115.344 75.1208 118.012 70.157 118.416V109.275ZM70.157 106.618V93.4482C71.1603 95.2276 72.205 96.9754 73.2008 98.5865C73.9007 99.7188 75.1131 100.395 76.4436 100.395C77.7741 100.395 78.9864 99.7188 79.6866 98.5867C83.5724 92.301 88.2047 83.9293 88.2047 79.7428C88.2047 78.5429 88.023 77.3848 87.6875 76.2934C90.6824 76.0623 93.6484 75.7757 96.5825 75.4333C95.9165 86.4883 93.0552 96.7215 88.3569 104.658C87.569 105.989 86.7432 107.229 85.8852 108.378C81.1876 107.313 75.8085 106.701 70.157 106.618ZM88.3571 36.1744C93.7591 45.2997 96.7341 57.4605 96.7341 70.4164C96.7341 71.196 96.7227 71.9727 96.7012 72.7462C93.3551 73.1433 89.9663 73.4668 86.5392 73.7176C84.483 70.2852 80.7278 67.9817 76.4436 67.9817C74.1324 67.9817 71.9768 68.6545 70.157 69.8105V34.2136C75.8082 34.1304 81.1871 33.5195 85.8849 32.4538C86.7432 33.6034 87.569 34.8431 88.3571 36.1744ZM91.4564 28.0242C90.0656 28.5563 88.5415 29.0355 86.9108 29.457C85.1279 27.2842 83.2191 25.4538 81.2126 23.9878C84.7688 24.9364 88.2068 26.291 91.4564 28.0242ZM50.9314 12.2214C55.9517 12.2214 60.0362 16.3057 60.0362 21.3262C60.0362 24.0654 57.0761 30.4244 51.915 38.7736C51.609 39.2687 51.1253 39.3221 50.9314 39.3221C50.7377 39.3221 50.254 39.2687 49.948 38.7736C44.7867 30.4247 41.8265 24.0654 41.8265 21.3262C41.8263 16.3059 45.9108 12.2214 50.9314 12.2214ZM20.7922 69.343C21.1497 53.1303 29.5743 38.8745 42.2045 30.4359C43.2742 32.6071 44.5258 34.8683 45.7897 37.0215C40.9274 46.2551 38.2677 57.9995 38.2677 70.4164C38.2677 71.0842 38.277 71.7498 38.2924 72.4134C32.3089 71.6269 26.4678 70.6029 20.7922 69.343ZM41.0785 75.4372C48.8486 76.3457 56.8426 76.8631 65.0121 76.9861C64.7988 77.8709 64.6828 78.7932 64.6828 79.7428C64.6828 81.8428 65.8486 84.996 67.5008 88.4109V106.621C63.463 106.68 59.5679 107.011 55.9572 107.583C56.6758 105.396 57.07 103.064 57.07 100.64C57.07 90.6576 50.4755 82.1865 41.4145 79.3534C41.2727 78.0606 41.1593 76.755 41.0785 75.4372ZM15.1323 100.639C15.1323 89.8097 23.9431 80.9986 34.7729 80.9986C45.6027 80.9986 54.4137 89.8094 54.4137 100.639C54.4137 111.47 45.6027 120.28 34.7729 120.28C23.9431 120.28 15.1323 111.47 15.1323 100.639ZM51.5649 115.284C52.0095 114.775 52.4316 114.246 52.829 113.698C54.0068 114.898 55.2297 115.961 56.4912 116.878C54.8201 116.437 53.1762 115.905 51.5649 115.284ZM86.9119 111.374C88.5393 111.795 90.0614 112.272 91.4498 112.803C88.2336 114.526 84.7999 115.893 81.2012 116.853C83.2125 115.385 85.1255 113.551 86.9119 111.374Z" fill="#D8443C"/>
<path d="M8.89864 78.4699C8.55864 78.4699 8.2189 78.3403 7.95939 78.0811C7.44062 77.5623 7.44062 76.7213 7.95939 76.2028L10.6156 73.5466C11.1344 73.0281 11.9751 73.0281 12.4939 73.5466C13.0126 74.0654 13.0126 74.9063 12.4939 75.4248L9.83762 78.0811C9.57837 78.3403 9.23864 78.4699 8.89864 78.4699Z" fill="#ECC2C0"/>
<path d="M124.446 73.4333C124.106 73.4333 123.766 73.3037 123.506 73.0444C122.987 72.5257 122.987 71.6847 123.506 71.1662L126.163 68.51C126.681 67.9915 127.522 67.9915 128.041 68.51C128.56 69.0287 128.56 69.8697 128.041 70.3882L125.385 73.0444C125.125 73.3037 124.786 73.4333 124.446 73.4333Z" fill="#ECC2C0"/>
<path d="M28.6096 21.998C28.2696 21.998 27.9298 21.8684 27.6703 21.6092C27.1516 21.0904 27.1516 20.2494 27.6703 19.7309L30.3266 17.0747C30.8453 16.5562 31.686 16.5562 32.2048 17.0747C32.7236 17.5934 32.7236 18.4344 32.2048 18.9529L29.5486 21.6092C29.2893 21.8684 28.9493 21.998 28.6096 21.998Z" fill="#ECC2C0"/>
<path d="M85.1718 12.7978C84.8318 12.7978 84.4921 12.6682 84.2326 12.409L82.5156 10.692L80.7986 12.409C80.2798 12.9275 79.4391 12.9275 78.9203 12.409C78.4016 11.8902 78.4016 11.0492 78.9203 10.5307L81.5766 7.87447C82.0953 7.35597 82.936 7.35597 83.4548 7.87447L86.1111 10.5307C86.6298 11.0495 86.6298 11.8905 86.1111 12.409C85.8515 12.6682 85.5118 12.7978 85.1718 12.7978Z" fill="#ECC2C0"/>
<path d="M107.219 120.771C106.879 120.771 106.539 120.641 106.279 120.382L104.562 118.665L102.845 120.382C102.327 120.9 101.486 120.9 100.967 120.382C100.448 119.863 100.448 119.022 100.967 118.504L103.623 115.847C104.142 115.329 104.983 115.329 105.502 115.847L108.158 118.504C108.677 119.022 108.677 119.863 108.158 120.382C107.898 120.641 107.558 120.771 107.219 120.771Z" fill="#ECC2C0"/>
</g>
<defs>
<clipPath id="clip0_6853_713">
<rect width="136" height="136" fill="white"/>
</clipPath>
</defs>
</svg>
